<?xml version="1.0" standalone="no"?>
<!DOCTYPE svg PUBLIC "-//W3C//DTD SVG 20010904//EN"
 "http://www.w3.org/TR/2001/REC-SVG-20010904/DTD/svg10.dtd">
<svg version="1.0" xmlns="http://www.w3.org/2000/svg"
 width="612.000000pt" height="612.000000pt" viewBox="0 0 612.000000 612.000000"
 preserveAspectRatio="xMidYMid meet">
<metadata>
Created by potrace 1.16, written by Peter Selinger 2001-2019
</metadata>
<g transform="translate(0.000000,612.000000) scale(0.100000,-0.100000)"
fill="#fbb9c9" stroke="none">
<path d="M2644 5211 c-17 -10 -40 -30 -51 -44 -20 -26 -20 -26 -69 -11 -67 21
-161 22 -201 1 -55 -29 -85 -71 -42 -60 27 7 71 -17 64 -34 -2 -8 -1 -11 5 -8
13 8 26 -22 41 -93 l13 -62 23 25 c44 46 78 23 49 -34 -9 -16 -16 -44 -16 -62
0 -32 37 -109 52 -109 17 0 97 91 117 133 27 55 30 132 8 176 -21 43 -22 41 8
41 31 0 75 -41 75 -70 0 -11 -16 -52 -36 -91 -43 -86 -52 -149 -30 -203 9 -21
16 -44 16 -50 0 -7 -20 -38 -44 -70 -64 -81 -89 -153 -84 -241 4 -86 31 -145
100 -220 49 -54 145 -131 153 -123 2 2 -3 24 -11 48 -9 27 -13 58 -9 81 9 51
67 115 131 146 63 30 92 70 100 140 9 76 -10 129 -67 184 -89 86 -100 153 -44
265 42 83 47 161 15 232 -50 109 -181 165 -266 113z"/>
<path d="M3420 4960 c0 -5 -13 -36 -29 -69 -20 -42 -25 -63 -18 -70 6 -6 14
-36 17 -66 5 -49 4 -56 -14 -61 -20 -6 -56 -37 -56 -49 0 -3 6 -5 14 -5 8 0
16 -6 18 -12 3 -9 37 -14 116 -15 l111 -2 -10 26 c-15 41 -4 59 37 58 39 -1
64 -24 65 -59 0 -20 1 -20 9 1 7 17 25 25 89 39 69 15 81 21 83 38 5 74 -18
117 -65 116 -18 0 -43 0 -57 0 -107 1 -119 -7 -129 -85 -6 -39 -7 -37 -60 93
l-54 132 -33 0 c-19 0 -34 -4 -34 -10z"/>
<path d="M5505 4266 c-39 -17 -70 -52 -90 -98 -12 -30 -15 -80 -15 -248 0
-201 -1 -210 -19 -210 -16 0 -20 8 -23 37 -2 27 -8 39 -20 41 -15 3 -18 -4
-18 -45 0 -60 11 -77 47 -78 27 0 28 -2 31 -52 l3 -53 -260 0 c-226 0 -261 -2
-261 -15 0 -13 54 -15 445 -13 286 2 446 7 448 13 1 6 -57 11 -155 13 l-158 3
0 127 c0 86 -4 132 -12 140 -9 9 -9 15 0 24 8 8 12 55 12 145 0 143 9 177 52
207 39 28 105 16 135 -23 17 -22 16 -4 -3 45 -21 55 -72 70 -139 40z"/>
<path d="M2136 3842 c-3 -5 -9 -37 -15 -73 -39 -261 -16 -501 79 -838 l41
-144 -25 -24 c-32 -30 -38 -29 -31 5 4 19 -1 15 -17 -18 l-23 -45 62 -3 62 -3
15 -42 c9 -23 33 -91 55 -152 21 -60 43 -122 49 -136 l11 -27 77 19 c42 10 81
16 86 13 4 -3 8 0 8 5 0 6 14 11 31 11 l32 0 -7 98 c-4 53 -9 120 -13 147 l-5
50 38 -45 c90 -106 186 -175 254 -182 24 -3 26 2 56 124 18 69 35 131 39 137
3 6 0 18 -8 25 -19 19 -144 247 -199 361 l-43 90 0 145 0 145 -37 77 c-35 74
-113 187 -175 256 l-30 32 -181 0 c-99 0 -183 -4 -186 -8z"/>
<path d="M867 3528 c15 -24 38 -53 52 -64 l25 -21 -54 3 -55 4 83 -28 c45 -15
92 -38 104 -49 l21 -21 -84 4 c-98 5 -83 -7 31 -26 51 -9 81 -19 93 -33 10
-11 16 -21 15 -23 -2 -1 -26 2 -53 7 -28 5 -68 7 -90 3 l-40 -7 30 -8 c17 -5
66 -14 110 -20 61 -9 84 -16 97 -33 26 -32 22 -34 -30 -21 -27 7 -84 16 -128
19 -73 5 -77 5 -49 -8 17 -8 82 -27 145 -43 103 -25 139 -42 140 -66 0 -4 -10
-1 -22 7 -13 8 -50 19 -82 25 -72 13 -214 15 -201 2 16 -14 279 -76 315 -74 9
1 28 -20 43 -48 26 -45 26 -64 1 -39 -14 14 -161 50 -203 49 l-36 0 43 -19
c24 -11 88 -34 143 -51 86 -27 102 -36 115 -61 9 -17 14 -32 11 -34 -2 -2 -21
3 -41 11 -42 18 -192 48 -209 42 -14 -4 147 -64 216 -80 41 -9 51 -16 68 -48
26 -52 24 -64 -8 -40 -37 30 -223 82 -223 63 0 -7 126 -63 222 -99 32 -11 49
-24 52 -39 3 -12 9 -30 13 -39 6 -16 4 -16 -18 -2 -36 23 -144 57 -181 57
l-33 -1 35 -19 c19 -10 74 -33 122 -51 83 -30 88 -33 98 -67 5 -20 8 -37 6
-39 -2 -2 -20 7 -40 20 -45 31 -133 54 -148 39 -12 -12 -8 -14 97 -52 33 -12
69 -25 81 -30 24 -9 36 -60 54 -215 15 -133 13 -150 -10 -91 -44 111 -42 54 2
-99 14 -47 19 -88 16 -127 -5 -72 11 -77 35 -9 l17 49 68 11 c37 7 76 15 87
18 42 14 -47 21 -96 9 l-48 -13 13 31 c11 27 18 31 86 43 126 22 148 33 55 29
-44 -2 -88 -7 -97 -11 -25 -10 -23 11 5 38 16 17 49 27 130 41 81 14 104 22
92 29 -19 10 -122 2 -162 -14 -34 -13 -38 -6 -18 29 17 28 21 29 139 42 97 10
116 15 96 22 -26 10 -152 4 -186 -9 -16 -6 -15 -1 7 28 26 33 29 34 118 42 50
4 108 11 129 16 l37 8 -60 8 c-38 5 -80 4 -114 -3 -30 -7 -56 -10 -58 -8 -3 2
10 20 27 39 29 34 32 35 88 31 31 -3 100 -1 152 4 l95 8 -60 13 c-37 8 -92 12
-144 8 l-83 -5 20 21 c17 17 32 20 89 19 37 -1 95 2 128 6 l60 8 -67 8 c-36 5
-87 7 -112 5 -52 -5 -58 3 -21 27 20 13 47 17 113 16 75 -1 82 1 52 9 -19 6
-54 9 -77 7 -48 -4 -54 3 -21 26 15 11 48 16 103 17 69 1 75 2 40 10 -22 4
-56 5 -75 2 -32 -6 -34 -5 -21 10 7 10 11 17 7 17 -3 0 5 29 19 65 13 36 22
65 20 65 -10 0 -54 -88 -60 -121 -4 -19 -16 -41 -27 -48 -19 -12 -20 -11 -14
11 18 63 37 151 33 154 -9 9 -48 -99 -54 -146 -4 -37 -13 -56 -36 -77 l-30
-28 7 35 c21 103 26 149 20 183 -3 21 -8 37 -10 34 -2 -2 -11 -61 -19 -132
-12 -105 -19 -133 -37 -152 -12 -12 -23 -22 -24 -20 -1 1 4 27 12 57 17 64 18
138 4 176 -6 15 -12 25 -14 23 -2 -2 -9 -67 -16 -144 -10 -118 -15 -144 -33
-162 -11 -13 -22 -21 -24 -19 -2 2 3 32 12 67 8 35 14 82 14 104 -1 45 -22
114 -31 99 -3 -5 -9 -63 -13 -129 -9 -157 -18 -203 -45 -229 l-22 -21 6 31
c14 66 10 208 -8 248 -9 22 -14 46 -11 55 2 9 7 40 9 70 3 30 7 55 8 56 2 1
38 21 80 45 43 24 76 46 73 48 -6 7 -85 -26 -117 -49 l-28 -20 0 25 c0 31 7
38 98 88 41 22 71 42 68 45 -8 9 -87 -26 -125 -55 -27 -20 -33 -22 -28 -8 4
10 10 29 13 42 3 13 10 24 15 24 12 0 160 72 156 76 -6 6 -118 -34 -134 -47
-18 -15 -24 -8 -16 19 4 16 32 36 99 69 51 26 92 48 90 50 -5 6 -111 -29 -134
-44 -31 -19 -37 -12 -18 25 12 23 31 35 103 61 48 17 95 36 103 42 25 17 -79
0 -129 -22 -53 -23 -54 -23 -42 -1 5 10 38 28 73 40 121 44 145 71 27 32 -34
-12 -63 -19 -66 -16 -3 2 0 13 6 23 6 12 30 24 63 32 67 15 101 35 43 25 -22
-4 -48 -11 -58 -16 -28 -14 -34 -3 -42 77 -4 41 -11 73 -16 69 -12 -7 -11 -68
1 -122 10 -40 2 -74 -19 -92 -3 -3 -14 -21 -23 -40 l-17 -35 0 41 c-1 55 -27
137 -52 166 -11 12 -19 16 -16 8 33 -110 58 -233 53 -254 -10 -41 -26 -30 -26
17 0 49 -25 133 -48 160 -8 9 -17 15 -19 13 -4 -3 54 -223 63 -237 2 -4 -2
-23 -9 -41 l-14 -33 -12 54 c-19 88 -66 181 -92 181 -4 0 15 -57 42 -127 49
-128 54 -152 40 -187 -5 -14 -15 3 -39 70 -32 90 -69 161 -78 151 -3 -3 19
-65 48 -139 38 -95 52 -141 47 -158 -6 -23 -7 -24 -13 -5 -22 60 -63 138 -83
157 -13 12 -23 18 -23 14 0 -4 23 -55 50 -114 34 -71 50 -117 48 -137 l-3 -30
-25 39 c-13 22 -37 54 -52 72 -25 28 -27 36 -18 60 l10 29 -29 -31 c-33 -37
-64 -114 -82 -205 -16 -81 -24 -90 -39 -45 -10 31 -9 45 9 99 24 73 81 308 81
334 0 13 -6 10 -20 -12 -19 -30 -56 -160 -80 -283 l-13 -62 -22 47 c-21 48
-21 48 -3 108 26 83 80 326 75 339 -2 6 -18 -11 -34 -37 -34 -52 -58 -143 -69
-252 l-6 -70 -20 38 -19 39 25 179 c14 99 26 187 26 196 0 29 -28 -6 -52 -65
-18 -48 -22 -75 -21 -166 l2 -109 -25 41 c-22 36 -23 45 -14 89 6 26 16 103
23 171 15 136 7 152 -31 61 -19 -46 -22 -68 -19 -153 l3 -98 -23 28 c-26 32
-27 43 -14 111 5 26 12 93 15 148 l6 100 -22 -40 c-19 -35 -22 -55 -21 -152
l0 -111 -25 29 c-22 27 -24 37 -23 127 1 101 -7 153 -24 149 -10 -2 -9 -153 2
-192 5 -19 4 -18 -18 3 -20 19 -24 33 -25 85 -1 54 -28 146 -40 134 -2 -2 2
-37 10 -78 8 -41 12 -76 11 -78 -10 -9 -55 58 -60 91 -4 20 -13 44 -21 55 -14
17 -15 15 -10 -17 5 -30 4 -33 -7 -18 -17 22 -110 98 -119 98 -5 0 4 -19 19
-42z m782 -748 l35 -55 1 -140 c0 -77 7 -174 14 -216 13 -74 13 -77 -10 -112
-13 -20 -27 -37 -30 -37 -3 0 -4 33 -1 73 5 81 -12 235 -28 251 -12 12 -12
-90 -1 -254 8 -98 6 -120 -7 -145 -16 -30 -16 -29 -24 70 -5 55 -16 123 -26
150 l-17 50 -5 -60 -5 -60 -13 92 c-13 90 -13 94 8 123 19 26 85 164 104 214
5 16 4 17 -9 6 -23 -19 -55 -74 -91 -158 l-32 -75 -12 42 c-10 37 -8 49 14
104 13 34 34 96 47 137 27 93 29 97 42 74 6 -11 26 -44 46 -74z"/>
<path d="M3417 3403 c-4 -3 -7 -10 -7 -15 0 -4 531 -8 1180 -8 1045 0 1180 2
1180 15 0 13 -134 15 -1173 15 -646 0 -1177 -3 -1180 -7z"/>
</g>
</svg>
