<?xml version="1.0" encoding="utf-8"?>
<!-- Generator: Adobe Illustrator 21.0.0, SVG Export Plug-In . SVG Version: 6.00 Build 0)  -->
<svg version="1.1" id="Layer_1" xmlns="http://www.w3.org/2000/svg" xmlns:xlink="http://www.w3.org/1999/xlink" x="0px" y="0px"
	 width="2000px" height="2000px" viewBox="0 0 2000 2000" style="enable-background:new 0 0 2000 2000;" xml:space="preserve">
<style type="text/css">
	.st0{fill:#ffffff;}
	.st1{fill:url(#SVGID_1_);}
	.st2{fill:url(#SVGID_2_);}
	.st3{fill:#8CBC73;}
	.st4{fill:url(#SVGID_3_);}
	.st5{fill:#DB3B61;}
	.st6{fill:#191718;}
	.st7{fill:url(#XMLID_3_);}
	.st8{fill:url(#SVGID_4_);}
	.st9{fill:url(#SVGID_5_);}
	.st10{fill:url(#SVGID_6_);}
	.st11{fill:url(#SVGID_7_);}
	.st12{fill:#507541;}
	.st13{fill:#231F20;}
	.st14{fill:url(#SVGID_8_);}
	.st15{fill:#FFFFFF;}
	.st16{fill:url(#SVGID_9_);}
	.st17{fill:#D95B4C;}
</style>
<g>
	<rect class="st0" width="2000" height="2000"/>
	<radialGradient id="SVGID_1_" cx="1041.4222" cy="981.816" r="667.6359" gradientUnits="userSpaceOnUse">
		<stop  offset="0" style="stop-color:#F288A9"/>
		<stop  offset="0.2603" style="stop-color:#F491AF"/>
		<stop  offset="0.6862" style="stop-color:#FAAABF"/>
		<stop  offset="1" style="stop-color:#FFC0CE"/>
	</radialGradient>
	<path class="st1" d="M1951.2,1269.2c-34-103.1-90.7-196.2-135.4-294.6c-22-48.5-41.1-98.6-52.7-150.7
		c-12.3-55.3-14.8-112.4-16.1-168.9c-2.4-103.2-0.6-208.7-35.7-307.4c-15.9-44.6-39-86.4-71-121.4c-32.2-35.1-73.7-61.2-118-78.2
		c-101.1-38.7-209.6-33.4-315.4-22.5c-57,5.9-113.8,11.9-171.1,14.8c-55,2.7-110.1,3.7-165.2,5.1c-109.7,2.7-220,7.2-327.7,30.1
		c-98,20.8-195.1,58.1-274.1,120.8c-37.8,30-70.9,64.8-97.2,105.3c-26.3,40.4-44.4,86-55.3,132.8c-22.3,96.1-15.3,196.8,1.4,293.1
		c18.9,108.5,51.2,214.2,67.6,323.2c8.3,55.4,12.6,111.7,8.6,167.7c-3.8,52.5-17.9,103.3-27.9,154.7c-9.8,50.4-16.2,103.6-1.6,153.8
		c13.6,46.7,45.6,83.5,86.1,109.3c39.2,24.9,84.6,39.3,129.4,50.6c52.1,13.2,105.3,21.7,158.9,26.3c107,9.2,215.4,0.4,319.7-24.9
		c48.3-11.7,95.6-27.2,141.5-46.3c86.9,26.9,174.1,53.3,263,73.1c91.5,20.5,187.2,36.4,281.3,29.4c86.2-6.4,171.6-34.7,244.8-80.7
		c71.7-45.1,133.9-109.8,165.9-189.2C1994.8,1475.9,1984,1368.2,1951.2,1269.2z"/>
	<g>
		
			<linearGradient id="SVGID_2_" gradientUnits="userSpaceOnUse" x1="651.7224" y1="361.0308" x2="651.7224" y2="810.9274" gradientTransform="matrix(0.962 -0.2731 0.2731 0.962 -278.2577 1076.3625)">
			<stop  offset="0" style="stop-color:#7B9E6A"/>
			<stop  offset="1" style="stop-color:#507541"/>
		</linearGradient>
		<path class="st2" d="M597.4,1446.4c59.4-41.9,72.4-109.8,72.5-161.5c-10.2-10.9-21.2-21.1-33-30.4c-22.2-17.7-46.6-32.4-71.7-45.5
			c-14.3,36.6-53.4,66.3-53.4,66.3c21.3-21.4,26-52.7,24.6-80.7c-19.4-9.3-39.2-18-59.3-25.7c-4.6-1.8-9.3-3.5-13.9-5.1
			c6.9,45.9,3,92.4-0.3,117.6c0.1,7.3-0.8,13.9-3,19.4c0,0,1.4-7.3,3-19.4c-0.6-36.8-27.4-92.8-50.5-134.5
			c-38.9-11.9-78.3-22.5-117.1-34.9c-2.6-0.8-5.2-0.8-7.5,0c-0.6,0.2-1.2,0.4-1.8,0.6c-2.8,1.2-4.6,3.3-5.6,5.8
			c-0.2,0.4-0.4,0.8-0.5,1.2c-1.1,2.9-0.8,6,0.4,8.8c0.1,0.2,0.1,0.4,0.2,0.5c0.6,1.6,1.1,3.2,1.7,4.7c0,0,0.2,0.7,0.4,1.2
			c0.2,0.6,0.5,1.4,0.5,1.4c0.9,2.9,1.8,5.7,2.6,8.6c1.7,6,3.3,12.1,4.7,18.3c2.8,12.6,4.8,25.3,6.2,38.1c0.7,6.3,1.2,12.5,1.6,18.8
			c0,0.1,0,0.2,0,0.3c0,0.1,0,0.3,0,0.5c0,0.8,0.1,1.7,0.1,2.5c0.1,1.5,0.1,3,0.2,4.5c0.1,3.2,0.2,6.3,0.3,9.5
			c0.5,26.1-0.9,52.2-2.8,78.2c-0.3,4.5-0.7,9-1.1,13.5c28.3,26.1,62.4,53.8,80,54.1c0,0-47.5,5-82.6-23.1
			c-3.1,35.6-5.9,71.2-5.5,106.9c34.7,31.8,86.7,63.8,137.9,35.4c0,0-82.1,57.1-131.9,35.8c1.4,8,3,15.9,5,23.8
			c20.9,7.4,48.9,12.3,74.3,0.1c0,0-39.9,19.7-67.8,22.2c5.6,16.4,12.8,32.2,22,47.1c7.9,12.8,17.2,24.9,27.9,35.6
			c38.4-4.4,106.7-17.1,173.5-53.9c0,0-66.8,56.8-128.5,84.8c21.4,9.3,44.6,13.5,68,14c28.2,0.6,56.2-3.3,84-7.5
			c33.9-5.1,67.9-10.2,101.8-15.4c8.8-1.3,17.5-2.6,26.3-4c8-1.2,16.5-1.8,24.3-4.2c8.9-2.7,16-8.3,19.5-17.1
			c2.5-6.2,2.4-13.2,1.6-19.7c-1.6-11.9-6.8-23-8.7-34.8c-0.5-3.3-0.9-6.6-1.1-9.9c0-0.1,0-0.1,0-0.2c0-0.9-0.1-1.7-0.1-2.6
			c0-1.3-0.1-2.7-0.1-4c0-6.7,0.4-13.4,1.2-20c0.7-6.4,1.7-12.8,2.9-19.2c0.4-2,0.8-4.1,1.2-6.1c0-0.2,0.1-0.5,0.1-0.7
			c0.1-0.4,0.2-0.9,0.3-1.3c0.7-3.4,1.4-6.8,2.2-10.2c3-13.7,6.2-27.4,8.7-41.2c5.2-29,5.4-58.6,0-87.6
			c-5.2-28.1-15.4-55.7-30.2-80.2C668.6,1422.4,597.4,1446.4,597.4,1446.4z M699.5,1656c-0.1,0-0.2,0.1-0.3,0.2
			c0-0.4,0.4-0.7,0.7-0.8c0,0.1,0,0.1-0.1,0.2c-0.1,0.1-0.2,0.3-0.3,0.4C699.5,1655.9,699.5,1656,699.5,1656z M699.9,1655.7
			c0.1-0.1,0.2-0.3,0.2-0.4C700.2,1655.2,700.2,1655.4,699.9,1655.7z M705.2,1500.4C705.6,1498.6,705.3,1499.8,705.2,1500.4
			L705.2,1500.4z"/>
		<path class="st3" d="M641.6,1575.7c-17.6-14.6-35.6-28.6-53.4-43c-4.5-3.6-8.9-7.3-13.3-11c-2.4-2-4.7-4-7.1-6
			c-0.9-0.8-1.9-1.6-2.8-2.4c-0.3-0.2-1.4-1.2-1.7-1.5c-8.9-7.8-17.5-15.7-25.9-24c-16.2-16-31.3-33.1-44-51.9
			c-0.2-0.3-0.8-1.1-0.9-1.4c-0.3-0.5-0.7-1-1-1.5c-0.8-1.2-1.5-2.4-2.3-3.6c-1.5-2.4-2.9-4.8-4.3-7.2c-2.8-4.9-5.4-9.8-7.8-14.9
			c-2.5-5.3-4.8-10.6-6.9-16c-0.6-1.5-1.1-3-1.7-4.5c-0.2-0.6-0.8-2.5-0.7-2c-0.8-2.5-1.5-5-2.2-7.5c-2-7-7.7-11.3-15-10.2
			c-6.5,0.9-12.1,8.6-10.2,15c1.7,6.2,3.7,12.3,5.9,18.3c15.9,43.5,46.2,80.3,79.5,111.9c33.7,32,71.3,59.3,106.8,89.2
			c2.1,1.8,4.3,3.6,6.4,5.4c0.6,0.5,1.2,1,1.7,1.5c1,0.9,2,1.7,3,2.6c4.2,3.7,8.3,7.4,12.4,11.2c8.1,7.6,16.1,15.4,23.6,23.5
			c7.5,8.1,14.7,16.4,21.4,25.2c1.8,2.3,3.5,4.7,5.2,7.1c0.7,1,1.4,1.9,2,2.9c0.4,0.6,0.9,1.3,1.3,1.9c0,0,0.1,0.1,0.2,0.3
			c0.3,0.4,1.2,1.8,1.2,1.8c0.3,0.5,0.6,1,1,1.5c0.7,1.2,1.5,2.3,2.2,3.5c1.3,2.2,2.7,4.4,3.9,6.6c5.2,9,9.9,18.4,13.8,28.1
			c1,2.3,1.9,4.7,2.7,7.1c0.3,0.9,0.7,1.9,1,2.9c0.1,0.3,0.2,0.5,0.2,0.7c0,0.1,0.1,0.2,0.1,0.4c1.5,4.5,2.8,9,3.9,13.6
			c2.3,9.1,4.1,18.4,5.2,27.8c0.3,2.5,0.6,5,0.8,7.5c0.1,1.2,0.2,2.4,0.3,3.5c0,0.3,0.1,1.5,0.1,2c0,0.5,0.1,1.1,0.1,1.2
			c0,0.5,0,1,0.1,1.5c0,1.2,0.1,2.4,0.1,3.5c0.1,2.4,0.1,4.7,0,7.1c-0.1,9.4-0.7,18.9-2,28.2c-0.6,4.4-1.4,8.8-2.2,13.2
			c0.2-1-0.4,1.8-0.5,2.5c-0.2,1-0.4,2-0.7,3c-0.5,2.3-1.1,4.6-1.7,6.9c-1.4,5.2-3,10.4-4.8,15.5l29.3-8.3c6.2-23,9-46.8,8-70.7
			c-1.7-41.6-13.8-81.7-36.1-117C711.1,1637,677.2,1605.2,641.6,1575.7z"/>
	</g>
	<g>
		
			<linearGradient id="SVGID_3_" gradientUnits="userSpaceOnUse" x1="631.7339" y1="-7.1983" x2="631.7339" y2="569.3962" gradientTransform="matrix(-0.962 -0.2731 -0.2731 0.962 2229.8911 1076.3625)">
			<stop  offset="0" style="stop-color:#7B9E6A"/>
			<stop  offset="1" style="stop-color:#507541"/>
		</linearGradient>
		<path class="st4" d="M1299.1,999.6c-19,31.4-32.1,66.7-38.8,102.8c-6.9,37.2-6.6,75.2,0,112.3c3.2,17.7,7.3,35.3,11.1,52.8
			c1,4.3,1.9,8.7,2.8,13c0.1,0.6,0.2,1.1,0.3,1.7c0.1,0.3,0.1,0.7,0.2,0.9c0.5,2.6,1,5.2,1.5,7.8c1.5,8.2,2.8,16.4,3.7,24.6
			c1,8.5,1.5,17.1,1.5,25.7c0,1.7,0,3.4-0.1,5.1c0,1.1-0.1,2.2-0.1,3.3c0,0.1,0,0.2,0,0.2c-0.3,4.2-0.8,8.5-1.4,12.7
			c-2.4,15.2-9,29.4-11.1,44.6c-1.1,8.4-1.2,17.3,2,25.2c4.5,11.2,13.6,18.4,25,21.9c10,3.1,20.9,3.8,31.2,5.4
			c11.2,1.7,22.5,3.4,33.7,5.1c43.5,6.6,87,13.1,130.5,19.7c35.6,5.4,71.6,10.3,107.7,9.6c30-0.6,59.8-6,87.2-17.9
			c-79.1-35.9-164.7-108.7-164.7-108.7c85.7,47.1,173.2,63.4,222.4,69c13.7-13.7,25.6-29.2,35.7-45.6c11.8-19.1,21-39.4,28.2-60.4
			c-35.7-3.2-86.8-28.5-86.8-28.5c32.5,15.6,68.4,9.4,95.2-0.1c2.5-10.1,4.6-20.2,6.4-30.5c-63.8,27.4-169.1-45.9-169.1-45.9
			c65.7,36.4,132.3-4.5,176.8-45.3c0.5-45.8-3.1-91.4-7.1-137.1c-45,36-105.8,29.6-105.8,29.6c22.5-0.4,66.2-35.8,102.5-69.3
			c-0.5-5.8-0.9-11.5-1.4-17.3c-2.5-33.3-4.3-66.8-3.6-100.2c0.1-4.1,0.2-8.1,0.3-12.1c0.1-1.9,0.2-3.8,0.2-5.7
			c0.1-1.1,0.1-2.1,0.2-3.2c0-0.3,0-0.4,0-0.6c0-0.1,0-0.3,0-0.4c0.5-8,1.2-16.1,2-24.1c1.8-16.4,4.3-32.7,7.9-48.8
			c1.7-7.9,3.7-15.7,6-23.4c1.1-3.7,2.2-7.4,3.4-11c0,0,0.4-1.1,0.6-1.8c0.2-0.7,0.5-1.5,0.5-1.5c0.7-2,1.4-4.1,2.2-6.1
			c0.1-0.2,0.2-0.5,0.2-0.7c1.6-3.5,2-7.6,0.5-11.3c-0.2-0.5-0.4-1-0.7-1.5c-1.3-3.2-3.6-5.9-7.2-7.5c-0.7-0.3-1.5-0.6-2.3-0.8
			c-3-1-6.3-1-9.7,0c-49.7,15.9-100.2,29.4-150.1,44.7c-29.7,53.4-64,125.2-64.8,172.3c2,15.5,3.8,24.8,3.8,24.8
			c-2.8-7.1-4-15.5-3.8-24.8c-4.2-32.4-9.2-91.9-0.3-150.8c-6,2.1-11.9,4.3-17.8,6.6c-25.8,9.9-51.1,21-76,32.9
			c-1.8,35.9,4.2,76,31.5,103.4c0,0-50.1-38-68.5-84.9c-32.2,16.8-63.4,35.7-91.8,58.3c-15.1,12-29.3,25-42.3,39
			c0,66.3,16.8,153.3,92.9,207C1431.8,1154.1,1340.5,1123.5,1299.1,999.6z M1300.8,1422.7c-0.1-0.2-0.3-0.4-0.4-0.6
			c0-0.1,0-0.1-0.1-0.2c0.4,0.2,0.9,0.6,0.9,1.1c-0.1-0.1-0.2-0.2-0.3-0.2C1300.9,1422.7,1300.9,1422.7,1300.8,1422.7z
			 M1300.1,1421.9c0.1,0.2,0.2,0.4,0.3,0.5C1300,1422,1300,1421.8,1300.1,1421.9z M1293.6,1223.4
			C1293.5,1222.7,1293.1,1221,1293.6,1223.4L1293.6,1223.4z"/>
		<path class="st3" d="M1375.1,1319.8c22.5-18.7,45.7-36.7,68.4-55.1c5.7-4.6,11.4-9.3,17.1-14.1c3-2.5,6.1-5.1,9.1-7.7
			c1.2-1,2.4-2.1,3.6-3.1c0.3-0.3,1.8-1.5,2.1-1.9c11.4-9.9,22.5-20.2,33.2-30.8c20.7-20.5,40.1-42.5,56.5-66.6
			c0.3-0.4,1-1.5,1.2-1.7c0.4-0.6,0.8-1.3,1.3-1.9c1-1.5,1.9-3,2.9-4.6c1.9-3.1,3.7-6.1,5.5-9.3c3.6-6.2,6.9-12.6,10-19.1
			c3.2-6.7,6.2-13.6,8.8-20.6c0.7-1.9,1.4-3.9,2.1-5.8c0.3-0.7,1.1-3.2,0.9-2.6c1-3.2,2-6.4,2.9-9.6c2.5-8.9,9.8-14.5,19.3-13.1
			c8.3,1.2,15.5,11,13.1,19.3c-2.2,7.9-4.8,15.7-7.6,23.5c-20.4,55.7-59.3,103-101.8,143.4c-43.2,41-91.3,76-136.8,114.3
			c-2.7,2.3-5.5,4.6-8.2,7c-0.7,0.6-1.5,1.3-2.2,1.9c-1.3,1.1-2.6,2.2-3.8,3.4c-5.4,4.7-10.7,9.5-15.9,14.4
			c-10.4,9.7-20.6,19.7-30.3,30.1c-9.6,10.3-18.8,21-27.4,32.2c-2.3,3-4.5,6-6.7,9.1c-0.9,1.2-1.7,2.5-2.6,3.7
			c-0.6,0.8-1.1,1.7-1.7,2.5c0,0-0.1,0.2-0.2,0.3c-0.3,0.5-1.5,2.3-1.5,2.3c-0.4,0.6-0.8,1.3-1.2,1.9c-1,1.5-1.9,3-2.8,4.5
			c-1.7,2.8-3.4,5.6-5,8.4c-6.7,11.6-12.7,23.6-17.7,36c-1.2,3-2.4,6-3.5,9.1c-0.4,1.2-0.9,2.4-1.3,3.7c-0.1,0.4-0.2,0.7-0.3,0.9
			c0,0.2-0.1,0.3-0.1,0.5c-1.9,5.7-3.5,11.6-5,17.4c-3,11.7-5.2,23.6-6.7,35.6c-0.4,3.2-0.7,6.4-1,9.7c-0.1,1.5-0.3,3-0.4,4.5
			c0,0.4-0.1,1.9-0.2,2.6c0,0.6-0.1,1.4-0.1,1.6c0,0.6-0.1,1.3-0.1,1.9c-0.1,1.5-0.1,3-0.1,4.5c-0.1,3-0.1,6-0.1,9.1
			c0.1,12.1,1,24.2,2.6,36.2c0.8,5.7,1.7,11.3,2.8,16.9c-0.2-1.2,0.5,2.3,0.7,3.2c0.3,1.3,0.6,2.5,0.9,3.8c0.7,2.9,1.4,5.9,2.2,8.8
			c1.8,6.7,3.8,13.3,6.1,19.8l-37.6-10.7c-7.9-29.4-11.5-60-10.2-90.5c2.2-53.3,17.6-104.8,46.3-149.9
			C1286.1,1398.5,1329.5,1357.7,1375.1,1319.8z"/>
	</g>
	<path class="st5" d="M608.5,1070.4c-2.6,17.5-13.4,32.3-27.8,42.2c-14.7,10.2-32.8,14.1-50.5,12.3c-34.7-3.4-62.6-24.7-83.2-51.4
		c10.4-4.4,19.6-11.5,26.7-20.4c7.3-9.2,13.9-22,11.9-34.1c-2.2-13.7-15.8-20.7-28.7-16.3c-11.6,4-20,15.8-24,26.9
		c-2,5.7-3,11.5-3.2,17.5c-7.2-12.8-13.3-26.1-18.8-39.7c10.1-6.4,19.2-14.1,27.4-22.8c8.1-8.5,15.8-19.6,14.1-32
		c-1.6-11.4-10.6-21.1-22.7-20.4c-13,0.8-21.5,13.3-27.1,23.7c-2.3,4.2-4.2,8.7-5.7,13.2c-3.9-11.7-7.6-23.5-11.4-35.2
		c11.4-3.5,21.2-11.5,26.3-22.5c5.7-12,4.9-27.1-1.8-38.5c-3.3-5.6-8.7-10.5-15.6-11.1c-8.4-0.7-15.1,5.2-18.3,12.5
		c-2.4,5.5-3.6,11.8-4.9,17.8c-4.4-11.9-9.3-23.7-14.8-35.2c7.4-0.6,14.6-3.8,21.3-7.3c11-5.8,20.1-13.3,19.7-26.8
		c-0.2-6.2-2.7-11.9-5.9-17c-2.9-4.6-6.5-10-10.9-13.3c-5.8-4.5-13.1-3.6-18.1,1.6c-3.9,4.1-7.2,9-10.1,13.8
		c-4.4,7.3-7.9,14.9-10.5,22.9c-7.5-11.6-16.1-22.5-26.2-32.2c9.1-2.4,16.4-10.2,19.2-19.4c3.8-12.4,2.1-26.4-3.3-38
		c-2.7-5.8-6.2-11.3-10.6-15.9c-4.3-4.5-9.5-9.3-15.9-10.1c-17.7-2.1-16,20.9-15.9,32c0.2,11.1,1,22.1,2.3,33.1
		c-8.1-4.7-16.7-8.5-25.7-11.3c-0.1-0.3-0.2-0.6-0.3-0.9c-5.5-13.2-11-26.5-18-39c-5.8-10.3-12.8-21.6-25.2-24.3
		c-11.7-2.6-23.6,5.8-27.1,16.9c-4.2,13.2,2.1,26.4,11.7,35.3c3.5,3.3,7.4,5.9,11.5,8.2c-9.4,1.5-18.6,4.6-27.2,9.4
		c-13.1-6.5-27.6-9.4-42.3-7.8c-15.6,1.7-33.2,8.5-41.5,22.6c-4.8,8.1-5.5,17.4-5.1,26.6c0.3,8.9,3.5,18.4,12.5,22.1
		c7.2,3,16,1.4,23.3-0.4c7.8-1.9,15.2-4.7,22.2-8.6c16.4-9.2,29.5-22.9,37.6-39.9c0.1-0.2,0.2-0.4,0.2-0.6c8.1-4.4,16.7-7,25.4-8.1
		c-2.5,2.6-4.8,5.3-7,8c-4.6,5.9-8.6,12.3-11.8,19.1c-3.1,6.6-6,13.9-4.9,21.3c1.2,8.2,7.2,14.7,15.4,16.1c8.2,1.4,15.6-2.7,22.2-7
		c12.5-8.3,24.7-18.4,30.6-32.7c2.3-5.6,3.3-11.6,3.1-17.6c7.2,3.1,14.1,6.9,20.5,11.3c-16.4,10.2-25.6,30.9-28.3,49.8
		c-1,7,1.4,14.1,8.4,16.8c5.7,2.1,12.2,0.1,17.5-2.3c11.3-5.1,20.5-14.4,25.3-25.8c1.8-4.3,2.9-8.9,3.4-13.5c4.7,5.8,9,12,13,18.4
		c-8.7,1.3-16.7,6.4-21.8,13.8c-6.5,9.4-8.6,21.3-8.9,32.5c-0.2,6.3,0.7,12.6,5.5,17.1c4,3.8,9.8,5,15.1,3.8
		c11.1-2.3,19.1-11.8,24-21.5c1.7-3.4,3-7,4-10.6c5.3,12.6,9.9,25.5,14.2,38.2c-5.5-2-11.5-2.9-17.6-2.8
		c-14.1,0.3-27.4,7.2-38.5,15.4c-5.6,4.2-10.3,9.8-9.6,17.2c0.8,7.4,7,12.5,13.2,15.7c10.8,5.6,24.2,7.2,36.1,4.2
		c10.8-2.7,20.2-8.4,27.4-16.5c3.7,11.6,7.5,23.2,11.5,34.7c-13.5-6.2-29-8-43-2.9c-13,4.7-19.3,18.3-11.9,30.6
		c6.8,11.3,22.2,14.9,34.4,16.4c12.2,1.5,24.6,0.3,36.3-3.2c4.2,9.6,8.8,19.1,13.8,28.3c-5.1-1.6-10.4-2.9-15.6-3.9
		c-12.7-2.4-31.3-5.2-38.4,8.8c-3.2,6.3-1.8,13.5,0.1,20c1.7,5.8,4.4,11.6,8.6,16.1c9.9,10.6,23.8,11,36.8,6.5
		c10.4-3.6,20-9.5,28.5-16.7c22.7,29.2,54.1,52.3,91.8,56.5c22.4,2.5,44.8-2.5,63.4-15.4c17.7-12.2,30.6-31.1,33.7-52.5
		C625.6,1062.5,610,1060.4,608.5,1070.4z M371.6,805.2C371.6,805.2,371.6,805.2,371.6,805.2C371.4,805.5,370.2,803,371.6,805.2z
		 M305.6,730.3c0-0.1,0-0.2,0-0.2C305.7,730.1,305.7,730.2,305.6,730.3z"/>
	<path class="st5" d="M1915.1,1653.3c-8.3-12.8-20.1-22.6-33.8-28.8c-1.8-10.1-5.3-19.4-10.2-27.9c4.5,1.8,9.1,3.2,14,3.9
		c13.4,1.9,28.1-1.7,35.9-13.6c6.6-10.1,5.6-25-4.1-32.7c-10.3-8.2-23.9-6.4-35.9-4.3c-14.6,2.5-28.8,6.8-42.9,11
		c-0.3,0.1-0.6,0.2-0.9,0.3c-8.1-5.3-16.8-9.8-25.8-13.2c9.7-6.1,19.1-12.6,28.1-19.7c9-7.1,28.6-20.8,15.3-33.6
		c-4.8-4.7-12.1-5.6-18.5-6.2c-6.6-0.5-13.3,0.2-19.7,1.8c-12.9,3.3-25.1,11.1-32.6,22.2c-5.5,8.2-7,19.2-3,28
		c-14.4-1.7-28.7-1.5-42.9,0.1c4.7-7.3,8.5-15.1,11.5-23.3c2-5.5,3.8-11.3,4.5-17.1c0.9-7.4-3.1-13.8-10.5-15.6
		c-5.5-1.3-12.2-0.8-17.7,0c-6.2,0.8-12.4,2.5-17.5,6.4c-11.1,8.4-11.2,20.6-8.7,33.2c1.5,7.6,3.7,15.5,8.1,21.8
		c-12.8,3-25.4,6.8-37.8,11.1c4-4.9,8.3-10,11.1-15.5c3.7-7.3,4-16.5-2-22.8c-4.9-5.1-12.3-6.2-19-5.2c-13.5,2-26.1,11.2-32,23.6
		c-5.4,11.3-5.5,24.3-0.9,35.8c-11.8,4.6-23.7,9.3-35.6,13.8c2.7-4.2,5-8.6,6.9-13.2c4.7-11.2,9.2-26.1,1.3-37.1
		c-7.2-10.1-21-11-31.1-4.8c-11,6.7-14.9,20.1-16.4,32.2c-1.6,12.3-1.8,24.5-0.4,36.8c-14.5,4.5-29.1,8.2-44,10.8
		c4.7-4.1,8.7-8.6,11.9-14c6.3-10.4,10.3-24.9,5.9-36.8c-4.9-13.2-19.3-19.5-31.8-12.3c-10.9,6.3-16.9,20-19.5,31.8
		c-2.5,11.4-2.2,23.4,1.1,34.6c-34.8,0.9-70-7.6-95.4-33.1c-6.2-6.3-11.4-13.4-15.3-21.2l-14.1,7.7c4.9,9.6,11.4,18.5,19.2,26.2
		c27.9,27.5,66.9,37.6,105.1,36.7c-0.3,11.4,1.3,23,5.2,33.7c4.8,13.3,14.3,24.2,29.2,25.2c6.3,0.4,12.7-1.2,18.5-3.6
		c6.4-2.7,13.1-6.2,16-12.9c6.6-14.8-7.8-27.9-18-36.5c-4.2-3.6-8.7-6.9-13.3-10c10.7-2,21.3-4.5,31.7-7.4
		c4.8,11.7,12,22.4,21.1,31.2c9.1,8.8,22.1,18.7,35.5,16.8c14.7-2.1,21.5-16,16.7-29.5c-5.1-14.5-16.6-25.7-30.4-32.5
		c11.8-4.3,23.5-8.8,35.2-13.4c-1.7,11-0.3,22.2,4.6,32.6c5.4,11.4,15.4,21.1,26.9,26.1c6.6,2.8,14.7,4.5,21.2,0.3
		c6.5-4.2,7.9-11.6,7.5-18.9c-0.7-14.2-3.9-29.4-12.8-40.9c-3.9-5-8.5-9.2-13.7-12.3c13-4.9,26.3-9.6,39.9-13.5
		c-2.3,3.2-4.3,6.5-5.9,10.1c-4.6,10.2-6.9,22.8-1.5,33.2c2.6,5,7.2,8.9,12.9,9.6c6.7,0.9,12.3-2.5,17.2-6.8
		c8.8-7.6,16.9-17,20.2-28.4c2.6-8.9,1.5-18.6-3.2-26.5c7.7-1,15.5-1.6,23.2-1.6c-3.4,3.4-6.3,7.3-8.6,11.5
		c-6,11.3-7.4,24.8-4.1,37.1c1.5,5.8,4.1,12.4,9.5,15.5c6.7,3.9,14,1.2,18.9-4.2c13.3-14.5,24-35.3,21.4-55.1
		c7.7,2.2,15.3,5.2,22.5,9c-4.9,3.7-9.1,8.5-12.1,13.9c-7.6,14-7.8,30.4-6.2,45.8c0.8,8.1,2.4,16.7,8.8,22.4
		c6.5,5.7,15.6,6.2,22.9,1.8c6.7-4,10.7-11.1,13.9-17.9c3.3-7,5.9-14.4,7.6-21.9c0.8-3.5,1.4-7.1,1.9-10.8c4.8,7.7,8.2,16.3,10,25.6
		c-0.1,0.2-0.2,0.4-0.3,0.6c-8.4,17.5-10.8,37-7.5,56.1c1.4,8.1,4.1,15.9,7.6,23.4c3.4,7,7.8,15.1,14.9,18.9
		c8.7,4.8,18.4,1.1,25.8-4.4c7.6-5.7,14.6-12.3,18-21.4C1929.9,1685.5,1923.9,1666.9,1915.1,1653.3z M1842.7,1504
		c0,0-0.1,0.1-0.2,0.2C1842.6,1504,1842.6,1504,1842.7,1504z M1739.6,1500.2C1739.6,1500.1,1739.6,1500.1,1739.6,1500.2
		C1742.2,1499.8,1739.4,1500.5,1739.6,1500.2z"/>
	<g>
		<path class="st6" d="M627.7,520.3c0,0-47.2,196.3-47.2,202.5c0,6.3-54.8,115.8-54.8,115.8v125.2l37.8,126.8l-30,103.3
			c0,0,58.7,66.8,59.1,80.3s8.7,118.4,8.7,118.4l-42.9,29.2c0,0,151.9,60.6,217.6,4c65.7-56.6,400.6-163,411.6-167.7
			c11-4.7-46.4-497.7-44.3-530.5c2.1-32.9-140.3-212.8-140.3-212.8L627.7,520.3z"/>
		<linearGradient id="XMLID_3_" gradientUnits="userSpaceOnUse" x1="1041.3463" y1="1439.5601" x2="1041.3463" y2="1101.0994">
			<stop  offset="0" style="stop-color:#E49888"/>
			<stop  offset="1" style="stop-color:#D95B4C"/>
		</linearGradient>
		<path id="XMLID_1_" class="st7" d="M1325.4,1450.5c0,0-201.9-200.3-226.9-430.4l-341.2,90.4c0,0,75.1,70.8,62.6,233.6
			L1325.4,1450.5z"/>
		<linearGradient id="SVGID_4_" gradientUnits="userSpaceOnUse" x1="633.7912" y1="857.979" x2="1191.8398" y2="646.294">
			<stop  offset="0" style="stop-color:#E49888"/>
			<stop  offset="1" style="stop-color:#D95B4C"/>
		</linearGradient>
		<path class="st8" d="M934.1,398.9c0,0-189.4-15.6-250.4,150.2s-51.6,125.2-72,190.9s-30.3,152.3,0,272.3
			c39.1,154.9,113.7,151,253,111.9s283.8-75.9,313.5-118.2c29.7-42.3,133-345.9-7.8-469.5S934.1,398.9,934.1,398.9z"/>
		<linearGradient id="SVGID_5_" gradientUnits="userSpaceOnUse" x1="1143.3335" y1="1442.2767" x2="1143.3335" y2="1897.0648">
			<stop  offset="0" style="stop-color:#E49888"/>
			<stop  offset="1" style="stop-color:#D95B4C"/>
		</linearGradient>
		<path class="st9" d="M1608.6,2000c0,0-169-433.7-283.3-549.5c-114.2-115.8-172.9-138.5-391.2-172.1
			c-246.7-38-261.3,194.8-255.1,259.8c7.6,78.9,51.1,461.8,51.1,461.8H1608.6z"/>
		<linearGradient id="SVGID_6_" gradientUnits="userSpaceOnUse" x1="1144.949" y1="2021.1259" x2="1144.949" y2="1818.2802">
			<stop  offset="0" style="stop-color:#9E2035"/>
			<stop  offset="1" style="stop-color:#891F36"/>
		</linearGradient>
		<path class="st10" d="M681.3,1559.9c11.5,110.7,48.9,440.1,48.9,440.1h878.5c0,0-64-164.1-139.8-317.3l0,0
			C1109.7,1518.2,720.4,1555.6,681.3,1559.9z"/>
		<linearGradient id="SVGID_7_" gradientUnits="userSpaceOnUse" x1="1119.8483" y1="1607.3496" x2="1119.8483" y2="1848.9553">
			<stop  offset="0" style="stop-color:#C62645"/>
			<stop  offset="1" style="stop-color:#B71A3F"/>
		</linearGradient>
		<path class="st11" d="M681.3,1559.9l-117.7,284.4c0,0,117.6,61,193.8,23.5s170.1-56.3,228.7-18.8c58.7,37.6,108,51.6,157.3,21.1
			c49.3-30.5,136.1-11.3,192.5,16.6c56.3,28,75.1,44.4,136.1,13.9c61-30.5,110.3,44.5,204.2,16.4l-207.3-234.3
			C1468.9,1682.7,1092.4,1505.5,681.3,1559.9z"/>
		<g>
			<circle class="st12" cx="1404.8" cy="1776.6" r="29.5"/>
			<path class="st12" d="M1368.2,1903c4.4-5.2,7.1-11.8,7.1-19.2c0-16.3-13.2-29.5-29.5-29.5c-14.3,0-26.3,10.2-28.9,23.8
				c6.6,2.7,12.9,5.6,18.8,8.5C1348.1,1892.8,1358.7,1898.4,1368.2,1903z"/>
			<circle class="st12" cx="947.1" cy="1724.9" r="29.5"/>
			<path class="st12" d="M1251.7,1637.9c14,0,25.8-9.8,28.7-23c-17.9-5.2-36.9-10.4-56.8-15.5c-0.9,2.8-1.4,5.8-1.4,9
				C1222.2,1624.7,1235.4,1637.9,1251.7,1637.9z"/>
			<path class="st12" d="M1126.7,1878.7c-2.5-13.8-14.5-24.3-29-24.3c-16.3,0-29.5,13.2-29.5,29.5c0,0.4,0,0.8,0.1,1.2
				C1088.3,1888.4,1107.6,1886.7,1126.7,1878.7z"/>
			<circle class="st12" cx="1081.1" cy="1646.4" r="29.5"/>
			<circle class="st12" cx="1222.2" cy="1762.5" r="29.5"/>
			<circle class="st12" cx="735" cy="1675.9" r="29.5"/>
			<path class="st12" d="M841.2,1549.5c-19.4,0-39.1,0.5-58.9,1.4c0.7,15.6,13.6,28.1,29.4,28.1C828,1579,841.2,1565.8,841.2,1549.5
				z"/>
			<path class="st12" d="M592.6,1813.3c16.3,0,29.5-13.2,29.5-29.5c0-13.6-9.2-25-21.8-28.4l-22.3,54
				C582.3,1811.9,587.3,1813.3,592.6,1813.3z"/>
			<path class="st12" d="M1538,1899.6c-1.1-15.3-13.8-27.3-29.4-27.3c-14.8,0-27,10.9-29.1,25.1
				C1499.4,1890,1518.2,1893.3,1538,1899.6z"/>
			<path class="st12" d="M1498.4,1716l-29.5-33.3c0,0-2.8-1.3-8.3-3.7c-1,2.9-1.5,6-1.5,9.3c0,16.3,13.2,29.5,29.5,29.5
				C1492,1717.7,1495.3,1717.1,1498.4,1716z"/>
			<path class="st12" d="M811.7,1842.8c0-16.3-13.2-29.5-29.5-29.5s-29.5,13.2-29.5,29.5c0,8.9,3.9,16.8,10.2,22.2
				c15.7-7.5,32-14.1,48.6-19.6C811.6,1844.6,811.7,1843.7,811.7,1842.8z"/>
			<path class="st12" d="M1608.4,1840.4c-5.4,5.3-8.8,12.8-8.8,21c0,16.3,13.2,29.5,29.5,29.5c6.9,0,13.3-2.4,18.3-6.4
				L1608.4,1840.4z"/>
		</g>
		<path class="st13" d="M969.6,409.8L847.6,389c0,0-108.5,23-111.6,25c-3.1,2.1-80.3,43.8-83.5,55.3c-3.1,11.5-34.4,67.8-36.5,75.1
			c-2.1,7.3-14.6,114.8-14.6,114.8l54.8,14.3c4,1,8.2-0.6,10.5-4c14.9-22.9,37-58.2,37-58.2L686.1,671c-1.5,5.2,1.6,10.6,6.8,12
			l12.2,3.2c4.5,1.2,9.2-1,11.3-5.2l57-115.7l-38.5,118.9c-1.6,4.9,1.3,10.1,6.2,11.4l153.4,39.9c4.6,1.2,9.3-1.5,10.7-6
			c7-23.2,17.2-58.3,17.2-58.3l-0.6,63c0,4.9,3.3,9.2,8,10.5l111.5,29l48.3-265.7L969.6,409.8z"/>
		<g>
			
				<linearGradient id="SVGID_8_" gradientUnits="userSpaceOnUse" x1="708.6918" y1="1077.1978" x2="731.8864" y2="1013.4934" gradientTransform="matrix(0.9999 -1.041289e-02 1.041289e-02 0.9999 -6.1171 -6.7743)">
				<stop  offset="0" style="stop-color:#DB3B61"/>
				<stop  offset="1" style="stop-color:#C62645"/>
			</linearGradient>
			<path class="st14" d="M689.2,968.3l28.8-11.3l14.6,26l26-14.6l18.7,24.6l11.5,14.2l31,9.9c0,0-50.8,38.1-103.3,23.3
				c-48.4-13.6-59.8-70.3-59.8-70.3l15.4,4.3L689.2,968.3z"/>
			<path class="st15" d="M735.1,978.4l23.6,6.6l10.5,17.7c0,0-18.7,2.5-41.1-3.8c-22.4-6.3-32.4-17.9-32.4-17.9l16.7-9L735.1,978.4z
				"/>
			
				<linearGradient id="SVGID_9_" gradientUnits="userSpaceOnUse" x1="744.3063" y1="987.6522" x2="725.1674" y2="1025.049" gradientTransform="matrix(0.9999 -1.041289e-02 1.041289e-02 0.9999 -6.1171 -6.7743)">
				<stop  offset="0" style="stop-color:#DB3B61"/>
				<stop  offset="1" style="stop-color:#C62645"/>
			</linearGradient>
			<path class="st16" d="M731.6,959.3c3.5,4.2,9.2,5.9,14.4,4.2c4.9-1.5,11.5-1.3,19.2,4.2c17.7,12.6,36.6,44.3,54.5,49.4
				c0,0-42.7-4.1-52-15.2c-13-15.6-35.8-16.4-35.8-16.4s-15.9-9.3-29.8-5.1c-13.9,4.2-45.4-10.2-45.4-10.2c17.9,5,35-15.8,56.6-17.3
				C722.8,952.1,728.4,955.4,731.6,959.3z"/>
		</g>
		<path class="st17" d="M809.3,791.1c0,0,44.7-51,80.9-36.8c48.1,18.9,71.8,59.2,71.8,59.2h-16.5l-59.9-34.3l-30.1-3.5L809.3,791.1z
			"/>
		<path class="st13" d="M952.9,812.9c-3.4-0.6-6.5-1.6-9.4-3.1c-5.7-2.9-10.5-7.4-15.6-12.2c-5-4.9-10.2-10.1-16-15
			c-5.9-4.9-12.5-9.3-19.7-12.6c-1.8-0.8-3.7-1.6-5.5-2.3l-2.8-1c-1-0.3-2-0.6-3-0.8l-3.1-0.7l-1.5-0.4l-1.6-0.2
			c-2.1-0.2-4.1-0.5-6.2-0.6c-8.3-0.2-16.2,1.2-23.6,3.6c-7.4,2.4-14.3,5.8-20.6,9.9c-6.3,4.1-12.2,8.8-17.1,14.4
			c13.9-5.1,27.4-9.5,40.8-11.4c6.6-0.9,13.2-1.3,19.4-0.6c1.5,0.3,3,0.5,4.5,0.8l1.1,0.2l1.1,0.3l2.1,0.7c0.7,0.2,1.4,0.4,2.2,0.6
			l2.3,0.9c1.5,0.6,3,1.2,4.4,1.9c3,1.3,5.8,2.9,8.6,4.6c2.9,1.6,5.6,3.5,8.4,5.5c5.6,3.9,11.2,8.3,17.4,12.5
			c6.2,4.2,13.3,8.4,21.4,9.8c4,0.7,8.2,0.7,12-0.1c3.8-0.8,7.4-2.3,10.6-4.2C959.9,813.6,956.3,813.4,952.9,812.9z"/>
		
			<ellipse transform="matrix(0.1301 -0.9915 0.9915 0.1301 -21.152 1575.736)" class="st13" cx="887.4" cy="799.9" rx="22.6" ry="22.6"/>
		<circle class="st15" cx="896.2" cy="803.2" r="6"/>
		<path class="st17" d="M711.8,762.4c0,0-6-40.4-38.6-48.5c-37.6-9.4-62,28.1-62,28.1l26.4-2.3l32.1-5.9l17.6,5.9L711.8,762.4z"/>
		
			<ellipse transform="matrix(0.1301 -0.9915 0.9915 0.1301 -155.2973 1327.344)" class="st13" cx="678.8" cy="752.2" rx="20.3" ry="20.3"/>
		<circle class="st15" cx="684.8" cy="758.2" r="6"/>
		<path class="st13" d="M693.6,737.1c-8.7-7.2-20.3-12.1-32.5-12.4c-6.1-0.2-12.3,0.9-17.8,2.8c-5.6,1.9-10.5,4.5-14.9,7.1
			c-4.5,2.5-8.5,5-12.8,6.4c-2.2,0.7-4.4,1.2-6.9,1.3c-2.4,0.1-5-0.2-7.7-0.7c1.9,2,4.1,3.7,6.7,5c2.6,1.2,5.6,2,8.6,2.2
			c6.1,0.4,11.8-1,16.9-2.4c5.1-1.4,9.8-2.9,14.2-3.7c4.5-0.9,8.7-1.2,13-0.9c8.6,0.5,17.1,3.2,25.7,7.3c8.6,4.1,17.1,9.4,26.3,15.4
			c-1.5-5.4-4.2-10.3-7.3-14.8C701.9,744.9,698,740.7,693.6,737.1z"/>
		<path class="st13" d="M1473.8,1224.4c-13.1-17.6-31.8-29.3-50.1-40.9c-14.4-9.1-30.5-18.4-40.7-32.5c0.9-17.7,9-35.1,16.9-50.6
			c9.9-19.3,19.6-38.4,23.7-60c3.7-19.7,3.5-40.2-1.4-59.7c-4.8-19-14.3-36.1-27.5-50.5c-13-14.1-28.7-25.4-43.6-37.5
			c-14.9-12.1-29.2-25.2-38.4-42.2c-0.4-0.7-0.7-1.4-1.1-2.1c-0.9-24,1.4-48.7,3.2-71.9c2.5-31.9,2.9-63.3-2.6-95
			c-4.9-28.6-14-56.3-26.5-82.5c-23.6-49.7-59.8-90.3-103.8-122.9c-41-30.3-86-55.3-133.3-74.5c-53.2-21.6-111.3-35.7-169-32.3
			c-14.1,0.8-28.1,2.7-41.9,5.6c0,0,0,0,0,0c-2.4,0.5-4.9,1-7.3,1.2c-46.5,4.3-87.2,19.1-119.6,40.9c-35.4,23.8-75.3,59.6-94.9,97.5
			c-22.5,43.6-39.6,80.3-49.2,127.7c-4.8,23.7-10.4,47.7-20.4,69.8c-0.7,1.5-1.4,3-2.1,4.5c-3.2,5-6.6,9.9-10.2,14.6
			c-9.9,12.9-21.6,24-34,34.6c-12.1,10.4-24.5,20.7-34.4,33.4c-19.3,24.8-24.6,56.6-20.6,87.3c4.3,33.2,19.1,63.3,36,91.7
			c6.4,10.6,13,21.1,19.6,31.6c0.9,2.3,1.8,4.6,2.7,7c7.3,19.4,14,39.6,15.7,60.3c-0.3,0.3-0.6,0.5-0.9,0.8c-3,2.5-1.5,6.2,1.2,7.6
			c0.2,21.8-5.6,42.7-9.9,64.1c-1.5,7.5-2.9,15.1-3.7,22.8c-7.5,14.9-14.4,30.5-14.6,47.5c-0.7,47.2,40.5,77.7,64.6,113.3
			c12.2,18.1,22,44.5,6.6,63.7c-13.2-1.8-18.1,19.8-3.9,24.8c37.1,13.2,79.2-7.8,97.9-40.9c21-37,9.6-82.6-16-114.1
			c-13.1-16.2-30.7-25.7-47.2-37.7c-6.2-4.5-12.8-10-15.9-17.2c-3.7-8.5-1-17.6,3-25.4c4.9-9.5,11.3-18.1,16.7-27.3
			c5.9-9.9,10.4-20.8,13.4-31.9c6.1-22.9,6.1-46.8,2.1-70c-4.2-24.4-13.6-47.8-24.7-69.7c-10.9-21.4-25.2-41-35.4-62.8
			c-9.6-20.6-8.2-41,1.1-61.4c9.5-20.9,22.9-39.7,32.2-60.6c18.8-42.6,25-88.6,31.7-134.2c6.2-42.6,12.1-88.6,33.8-126.6
			c18.8-33,47.5-60.3,78.3-82c32.2-22.8,68.1-41.1,106.2-51.7l0.2-0.1c12.9-3.6,26.5-3.6,39.4,0.1c11.3,3.3,22.4,7.5,33.1,12.8
			c10,4.9,19.5,10.5,28.6,16.8c1.7,1.2,3.4,1.8,5.1,2.1c0.7,0.6,1.5,1.1,2.4,1.5c57,29.5,79,97.4,77.6,158
			c-1.9,83.3-38.4,160.9-49.6,242.8c-5.5,40.2-5.5,81.8,6.9,120.8c3.2,10.2,7.1,20,11.4,29.7c-3.8-3.7-7.5-7.4-11-11.2
			c-35.7-39.3-39.9-94.3-29.2-144.2c6.7-31,18.3-60.7,29.8-90.2c2.3-6-7.3-8.6-9.6-2.7c-19.7,50.6-40.2,103.8-34.5,159.1
			c2.5,24.6,9.9,49,24,69.4c11.6,16.7,26.8,30.1,42,43.5c7,13.5,14.4,26.9,21.5,40.3c15.3,28.8,30.2,59.5,31.7,92.7
			c0.4,9.1-0.2,18.3-1.1,27.5c-10.5,27.8-18.7,57.6-8.8,86.7c4.7,13.8,13.1,26.3,25.5,34.4c14.3,9.3,31.7,10.6,47.9,14.7
			c7.6,1.9,17,5.8,24,11.6c5.5,13.5,10.2,36.6,3.6,71.7c-0.7,3.9,3.2,7.1,6.9,5.4l0.1,0c28.5-13,60.9-17.8,92.1-13.8
			c31.7,4.1,60.8,21.4,93.2,21.3c32-0.1,58.9-18.6,82.7-38.1c23.6-19.3,47.7-40.2,59.6-69C1491.5,1276.3,1490.7,1247,1473.8,1224.4z
			 M459,906c-8.1-30.5-8.2-65,8.9-92.6c8.7-14,21.2-25,33.5-35.6c5.3-4.6,10.6-9.2,15.8-13.9c-1.3,2.1-2.6,4.2-4,6.3
			c-23.4,37.2-46.7,76.9-46.1,122.3c0.3,21.9,5.5,42.8,12.5,63.3C471.1,939.9,463.7,923.5,459,906z M585.5,1374.3
			c-1.5,4.3-3.9,8.2-7.1,11.5c3.1-12.1,1.6-25.3-3.1-37.2c-8.4-21.4-24.7-38.5-39.2-55.9c-14.8-17.6-29.3-36.8-33.8-59.9
			c-2.3-12-0.7-23.3,2.9-34.2c0.7,7.9,2.3,15.7,5,23.3c7.5,20.9,21.1,38.3,35.4,55C567.6,1303,598.3,1337.1,585.5,1374.3z
			 M1097.5,1298c-16.2-3.9-29.4-11.6-37.7-26.3c-7.5-13.3-9.8-28.9-8.6-44c0-0.4,0.1-0.7,0.1-1.1c0.5,7.1,1.7,14.2,3.9,21.2
			c5.8,18,18.4,31.7,35.4,39.9c12.8,6.1,29.5,9,40.1,18.5C1120.1,1302.2,1108.5,1300.6,1097.5,1298z M1313.4,869.7
			c6.6,8.5,14.2,16.3,22.5,23.4c14.9,12.9,31.2,24.1,45.4,37.8c14.7,14.2,25.6,31.1,30.8,51c5.3,19.9,5.2,41.2,0.6,61.3
			c-5.1,22.7-17.1,42.1-26.9,62.9c-4.3,9.1-8.2,18.9-10.5,29c-4.4-17.9,3.4-37.2,10.2-53.9c9.6-23.6,20.7-47.7,15.8-73.8
			c-5.2-27.8-29.1-43.7-49.1-60.9C1328,925.7,1317.4,898.7,1313.4,869.7z"/>
		<path class="st12" d="M878.3,713.5c-44.8,0-83,28.2-98,67.8c-10.8-8.3-22.3-10-29.8-10.1c0.7-3.5,1.2-7.1,1.5-10.7
			c5.1-55.2-31.4-103.9-81.2-108.5c-49.9-4.6-94.6,36.6-99.6,91.8c-2.4,26.6,4.6,52.6,19.8,73c15.3,20.6,37.2,33.2,61.4,35.4
			c2.6,0.2,5.1,0.4,7.7,0.4c21.6,0,42.3-8.4,59.2-24c13.4-12.5,23.2-28.5,28.6-46.4c5.7-0.4,18.2,0.1,28.9,10.4
			c-2.1,8.2-3.2,16.7-3.2,25.5c0,57.7,47,104.7,104.7,104.7C936,923,983,876,983,818.2C983,760.5,936,713.5,878.3,713.5z
			 M741.2,759.5c-2.2,23.9-12.6,45.7-29.3,61.2c-16.5,15.3-37.3,22.7-58.4,20.8c-21.1-1.9-40.2-13-53.6-31.1
			c-13.6-18.3-19.9-41.5-17.7-65.5c4.3-46.7,40-82.2,81.1-82.2c2.2,0,4.4,0.1,6.6,0.3C713.7,667,745.7,710.3,741.2,759.5z
			 M878.3,912c-51.7,0-93.8-42.1-93.8-93.8c0-51.7,42.1-93.8,93.8-93.8c51.7,0,93.8,42.1,93.8,93.8C972,869.9,930,912,878.3,912z"/>
	</g>
</g>
</svg>
