<?xml version="1.0" standalone="no"?>
<!DOCTYPE svg PUBLIC "-//W3C//DTD SVG 20010904//EN"
 "http://www.w3.org/TR/2001/REC-SVG-20010904/DTD/svg10.dtd">
<svg version="1.0" xmlns="http://www.w3.org/2000/svg"
 width="360.000000pt" height="360.000000pt" viewBox="0 0 360.000000 360.000000"
 preserveAspectRatio="xMidYMid meet">

<g transform="translate(0.000000,360.000000) scale(0.100000,-0.100000)"
fill="#fb6f92" stroke="none">
<path d="M1390 2900 c0 -5 6 -37 14 -72 8 -35 22 -120 31 -190 25 -200 57
-272 159 -355 53 -43 203 -123 230 -123 18 0 19 6 7 46 -5 16 -15 49 -22 74
-14 48 -38 96 -101 198 -22 35 -37 69 -35 75 7 20 114 -104 166 -193 28 -47
55 -92 61 -100 14 -22 10 109 -6 187 -35 166 -121 272 -289 360 -132 68 -215
104 -215 93z"/>
<path d="M2459 2606 c-2 -2 -26 -7 -53 -10 -90 -12 -181 -37 -221 -61 -54 -31
-128 -111 -158 -171 -25 -50 -43 -114 -32 -114 3 0 29 22 56 48 55 53 152 116
169 110 6 -2 0 -13 -12 -25 -127 -121 -204 -220 -185 -240 10 -9 117 12 188
38 103 37 147 87 212 240 20 47 47 105 61 130 14 24 26 47 26 52 0 7 -43 10
-51 3z"/>
<path d="M1155 2475 c12 -56 74 -169 140 -257 110 -146 242 -247 444 -337 320
-144 477 -319 514 -573 9 -65 8 -92 -6 -165 -26 -138 -72 -220 -185 -331 -52
-52 -83 -88 -71 -81 99 51 218 166 293 282 160 245 172 477 39 716 -88 158
-246 274 -488 360 -241 85 -372 142 -464 200 -56 35 -144 117 -195 181 l-27
35 6 -30z"/>
<path d="M1101 2138 c-1 -111 11 -171 61 -286 l40 -93 -16 -44 c-10 -24 -37
-74 -62 -111 -24 -38 -47 -76 -50 -86 -12 -40 57 -98 117 -98 16 0 19 -4 14
-17 -20 -46 -17 -71 9 -88 18 -12 26 -26 26 -45 0 -19 9 -35 28 -49 15 -12 32
-25 38 -30 6 -5 14 -27 18 -49 3 -24 18 -52 36 -72 29 -31 33 -32 91 -28 50 4
83 16 202 76 170 87 230 98 332 64 33 -11 61 -19 62 -18 2 2 -21 16 -49 32
-47 26 -63 29 -138 29 l-85 0 -115 -62 c-115 -62 -219 -98 -252 -87 -24 7 -39
38 -53 104 -9 49 -14 55 -37 58 -15 2 -31 9 -37 16 -13 15 -4 46 13 47 6 0 -5
6 -24 12 -37 13 -39 21 -24 94 6 32 6 32 -57 50 -89 27 -92 36 -35 127 26 42
56 100 66 128 16 46 17 57 5 86 -76 180 -90 228 -114 372 -9 55 -9 55 -10 -32z"/>
<path d="M1425 1799 c-16 -10 -46 -19 -66 -19 -25 0 -42 -7 -55 -22 -15 -19
-16 -20 -1 -9 11 9 17 10 17 2 0 -12 27 -10 49 3 10 6 12 5 7 -2 -5 -8 -2 -10
8 -6 9 3 16 10 16 16 0 5 4 7 8 4 4 -2 12 -2 17 2 9 6 38 53 33 51 -2 0 -16
-9 -33 -20z"/>
</g>
</svg>
