<?xml version="1.0" standalone="no"?>
<!DOCTYPE svg PUBLIC "-//W3C//DTD SVG 20010904//EN"
 "http://www.w3.org/TR/2001/REC-SVG-20010904/DTD/svg10.dtd">
<svg version="1.0" xmlns="http://www.w3.org/2000/svg"
 width="626.000000pt" height="433.000000pt" viewBox="0 0 626.000000 433.000000"
 preserveAspectRatio="xMidYMid meet">

<g transform="translate(0.000000,433.000000) scale(0.100000,-0.100000)"
fill="#000000" stroke="none">
<path d="M3418 4079 c-109 -16 -286 -147 -328 -243 -26 -57 -37 -135 -55 -386
-13 -187 -30 -360 -51 -545 -3 -27 -23 -94 -44 -147 l-38 -98 27 8 c14 4 64 7
111 7 106 -1 170 -27 234 -95 49 -53 66 -98 66 -181 0 -122 -52 -211 -178
-305 -42 -32 -78 -59 -79 -59 -1 0 13 -39 32 -85 36 -88 42 -130 25 -174 -11
-31 3 -35 38 -10 51 36 67 128 37 215 l-15 44 20 -25 c48 -61 89 -183 90 -272
0 -37 1 -38 40 -38 34 0 44 6 77 45 59 70 108 157 133 234 37 115 27 195 -49
420 -77 227 -90 284 -82 381 l6 74 41 1 c34 1 40 -2 40 -19 -1 -11 6 -21 14
-22 8 0 32 -2 53 -2 26 -2 37 -7 37 -17 0 -12 4 -13 19 -5 16 8 27 2 66 -38
26 -26 42 -37 36 -25 -6 12 -11 50 -11 85 0 58 -11 88 -31 88 -4 0 -10 -16
-13 -35 -8 -39 -42 -66 -52 -41 -3 8 -12 12 -20 9 -21 -8 -18 66 5 121 l20 45
-25 -9 c-30 -12 -74 -13 -58 -2 6 4 16 17 23 29 11 21 8 23 -43 38 -64 19
-133 63 -177 112 -35 40 -79 127 -79 157 0 12 -5 16 -16 12 -18 -7 -64 39 -64
63 1 14 2 14 11 -1 14 -25 42 -24 34 1 -3 10 -6 54 -7 98 -1 94 17 142 88 234
56 73 136 139 226 184 36 19 68 40 71 47 4 9 6 9 6 1 1 -6 29 -32 64 -56 67
-48 127 -124 150 -192 32 -90 59 -253 56 -327 -5 -90 -48 -186 -115 -256 -40
-41 -42 -46 -26 -58 17 -12 32 -10 32 6 0 5 16 36 35 69 33 55 84 99 98 85 3
-4 -9 -36 -28 -73 -45 -89 -49 -110 -34 -186 11 -57 16 -65 42 -75 76 -26 148
-1 177 62 11 24 20 52 20 63 0 11 5 27 11 35 8 11 9 1 4 -35 -14 -102 -79
-185 -146 -185 -33 0 -39 -16 -9 -25 33 -10 78 4 110 36 57 58 75 186 46 332
-8 40 -22 113 -31 162 -41 230 -138 512 -208 607 -12 16 -42 42 -66 59 -38 25
-54 29 -114 29 -53 0 -78 5 -103 21 -41 25 -114 37 -176 28z m-200 -564 c-3
-3 -9 2 -12 12 -6 14 -5 15 5 6 7 -7 10 -15 7 -18z m-41 -37 c-3 -7 -5 -2 -5
12 0 14 2 19 5 13 2 -7 2 -19 0 -25z"/>
<path d="M3682 3705 c-48 -22 -52 -26 -42 -45 11 -21 11 -21 57 4 52 30 98 33
133 10 15 -9 10 -1 -12 20 -44 42 -65 44 -136 11z"/>
<path d="M3322 3645 c-20 -15 -52 -64 -52 -81 0 -3 16 8 36 26 35 31 40 32
108 28 65 -3 71 -1 71 17 0 18 -8 20 -70 23 -51 2 -76 -2 -93 -13z"/>
<path d="M3705 3592 c-31 -20 -63 -67 -52 -78 4 -4 11 4 16 18 15 41 35 51 56
28 10 -11 28 -20 39 -20 20 1 83 47 74 55 -2 2 -26 6 -53 10 -39 5 -56 2 -80
-13z"/>
<path d="M3339 3545 c-34 -19 -66 -65 -45 -65 9 0 20 9 26 20 6 11 22 23 36
26 21 5 31 1 49 -22 21 -27 25 -28 54 -17 17 6 31 7 31 2 0 -5 5 -9 10 -9 6 0
4 12 -4 28 -10 19 -28 32 -54 40 -50 15 -71 15 -103 -3z"/>
<path d="M3378 3356 c-23 -17 -23 -29 1 -50 39 -36 91 5 57 43 -22 24 -34 26
-58 7z"/>
<path d="M3620 3350 c0 -5 5 -10 10 -10 6 0 10 5 10 10 0 6 -4 10 -10 10 -5 0
-10 -4 -10 -10z"/>
<path d="M3550 3340 c0 -5 5 -10 10 -10 6 0 10 5 10 10 0 6 -4 10 -10 10 -5 0
-10 -4 -10 -10z"/>
<path d="M3621 3291 c-7 -5 -21 -7 -30 -4 -9 2 -27 -7 -39 -20 l-24 -25 26
-41 c33 -52 54 -52 106 -2 48 46 50 65 10 86 -34 17 -31 17 -49 6z"/>
<path d="M3631 2854 c0 -11 3 -14 6 -6 3 7 2 16 -1 19 -3 4 -6 -2 -5 -13z"/>
<path d="M4007 2559 c7 -7 15 -10 18 -7 3 3 -2 9 -12 12 -14 6 -15 5 -6 -5z"/>
<path d="M3787 2422 c-51 -51 -63 -81 -26 -61 18 9 19 13 8 21 -10 7 -8 8 7 3
13 -3 32 3 50 17 16 12 31 23 32 24 6 4 -9 44 -17 44 -4 0 -28 -22 -54 -48z"/>
<path d="M2883 1362 c-61 -17 -61 -14 -11 -144 55 -144 81 -131 86 42 4 134 9
127 -75 102z"/>
<path d="M3577 1313 c-10 -9 -9 -23 1 -23 5 0 9 7 9 15 0 17 -1 18 -10 8z"/>
<path d="M3360 1286 c0 -2 8 -10 18 -17 15 -13 16 -12 3 4 -13 16 -21 21 -21
13z"/>
<path d="M3464 1263 c24 -27 26 -33 12 -33 -9 0 -30 7 -46 15 -17 9 -30 13
-30 11 0 -10 59 -36 80 -36 28 0 25 12 -12 46 l-33 29 29 -32z"/>
<path d="M3583 1273 c9 -2 23 -2 30 0 6 3 -1 5 -18 5 -16 0 -22 -2 -12 -5z"/>
</g>
</svg>
